<svg width="160" height="36" viewBox="0 0 160 36" fill="none" xmlns="http://www.w3.org/2000/svg">
<path d="M35.4698 31.9561L31.5531 35.763L27.9292 31.9561H16.7281C11.3838 31.9561 6.80823 28.6983 4.83158 24.0861C4.39232 23.0612 4.06287 21.963 3.91645 20.7917C3.84325 20.206 3.80664 19.6203 3.80664 18.998V10.7253H9.44378V19.4739C9.44378 21.0113 9.95625 22.4755 10.7982 23.6102C11.7133 24.8548 12.9944 25.7699 14.4952 26.2458C15.1175 26.4288 15.7764 26.5386 16.4719 26.5386H22.6581L22.5849 26.4654L21.8894 25.7699L15.0077 18.5954H22.8045L29.613 25.7699L29.7228 25.8797L35.4698 31.9561Z" fill="url(#paint0_linear_1049_89639)"/>
<path d="M35.4694 31.9569L31.5526 35.7639L27.9288 31.9569H16.7277C11.3834 31.9569 6.8078 28.6991 4.83114 24.0869C4.39188 23.062 4.06243 21.9638 3.91602 20.7925C5.3436 21.5612 7.68631 22.6227 10.7977 23.6111C11.7128 24.8556 12.994 25.7707 14.4948 26.2466C15.1171 26.4296 15.776 26.5394 16.4715 26.5394H22.6577L22.5845 26.4662L21.889 25.7707C24.2683 25.9538 26.8306 25.9904 29.576 25.8073L29.6858 25.9172L35.4694 31.9569Z" fill="url(#paint1_linear_1049_89639)"/>
<path d="M32.2858 13.3225V23.7182L26.6853 18.0811V12.9564C26.6853 12.2243 26.5755 11.5654 26.3924 10.9066C25.5139 7.90496 22.7319 5.70867 19.4375 5.70867H13.9834V0.0715332H18.9983C26.3558 0.0715332 32.2858 6.00151 32.2858 13.3225Z" fill="url(#paint2_linear_1049_89639)"/>
<path d="M26.3924 10.8722C25.5139 7.87056 22.7319 5.67427 19.4375 5.67427H13.9834V0.622803C17.4243 1.90397 25.2943 5.41803 26.3924 10.8722Z" fill="url(#paint3_linear_1049_89639)"/>
<path d="M4.64881 0H0V4.64881H4.64881V0Z" fill="url(#paint4_linear_1049_89639)"/>
<path d="M5.34424 6.22095H2.0498V9.51538H5.34424V6.22095Z" fill="url(#paint5_linear_1049_89639)"/>
<path d="M12.5196 1.16968H7.13867V6.55059H12.5196V1.16968Z" fill="url(#paint6_linear_1049_89639)"/>
<path d="M55.8594 7.61426C58.8976 7.61426 61.0207 8.09012 62.1921 9.07845C63.3634 10.0668 63.9491 12.0434 63.9491 15.045C63.9491 17.8636 63.4732 19.8403 62.5581 21.0116C61.643 22.183 59.7395 22.732 56.8111 22.732H55.2371H45.6467V34.226L39.4971 27.7469V7.61426H55.8594ZM57.7629 15.2647C57.7629 14.1299 57.5066 13.3978 57.0308 13.0318C56.5549 12.6657 55.713 12.5193 54.505 12.5193H45.6833V17.8636H54.5783C55.7496 17.8636 56.5549 17.6806 57.0308 17.3511C57.5432 17.0217 57.7629 16.3262 57.7629 15.2647Z" fill="url(#paint7_linear_1049_89639)"/>
<path d="M85.6918 7.61426C88.1077 7.61426 89.8282 8.09012 90.8897 9.00524C91.9146 9.95697 92.4271 11.6042 92.4271 13.9835C92.4271 14.8986 92.3905 15.6673 92.2807 16.3262C92.1709 16.9851 91.9879 17.5342 91.6584 18.01C91.3656 18.4859 90.9995 18.8519 90.5969 19.0716C90.1942 19.2912 89.3523 19.6206 88.0711 20.0599C89.4621 20.2429 90.5237 20.609 91.1826 21.1214C91.8414 21.6705 92.1709 22.5856 92.1709 23.9034V27.7835H85.9481V25.8435C85.9481 24.8551 85.8748 24.0864 85.6918 23.5007C85.5088 22.9151 84.7035 22.6222 83.2759 22.6222H73.0266V27.7835H66.877V7.65086H85.6918V7.61426ZM83.1295 17.7172C84.5205 17.7172 85.399 17.5342 85.7284 17.2047C86.0579 16.8753 86.2409 16.1066 86.2409 14.8986C86.2409 14.2397 86.1677 13.7273 86.0579 13.4344C85.9115 13.105 85.6552 12.8854 85.2526 12.7755C84.8499 12.6657 84.4839 12.5925 84.2276 12.5559C83.9714 12.5193 83.642 12.5193 83.2759 12.5193H82.8H73.0632V17.7172H82.3242H83.1295Z" fill="url(#paint8_linear_1049_89639)"/>
<path d="M95.4287 27.7469V7.61426H101.578V27.7469H95.4287Z" fill="url(#paint9_linear_1049_89639)"/>
<path d="M123.359 27.7469L111.243 12.6291V27.7469H105.459V7.61426H115.232L127.385 22.732V7.61426H133.169V27.7469H123.359Z" fill="url(#paint10_linear_1049_89639)"/>
<path d="M144.882 27.7469V12.6657H135.877V7.61426H160V12.6657H151.031V27.7835H144.882V27.7469Z" fill="url(#paint11_linear_1049_89639)"/>
<defs>
<linearGradient id="paint0_linear_1049_89639" x1="3.80664" y1="23.2442" x2="36.2754" y2="23.5119" gradientUnits="userSpaceOnUse">
<stop stop-color="#C83B62"/>
<stop offset="1" stop-color="#7F35CD"/>
</linearGradient>
<linearGradient id="paint1_linear_1049_89639" x1="3.91602" y1="28.2782" x2="36.2682" y2="28.7228" gradientUnits="userSpaceOnUse">
<stop stop-color="#C83B62"/>
<stop offset="1" stop-color="#7F35CD"/>
</linearGradient>
<linearGradient id="paint2_linear_1049_89639" x1="13.9834" y1="11.8949" x2="32.7523" y2="11.9896" gradientUnits="userSpaceOnUse">
<stop stop-color="#C83B62"/>
<stop offset="1" stop-color="#7F35CD"/>
</linearGradient>
<linearGradient id="paint3_linear_1049_89639" x1="13.9834" y1="5.74748" x2="26.7082" y2="5.84794" gradientUnits="userSpaceOnUse">
<stop stop-color="#C83B62"/>
<stop offset="1" stop-color="#7F35CD"/>
</linearGradient>
<linearGradient id="paint4_linear_1049_89639" x1="3.62561e-08" y1="2.32441" x2="4.76721" y2="2.35549" gradientUnits="userSpaceOnUse">
<stop stop-color="#C83B62"/>
<stop offset="1" stop-color="#7F35CD"/>
</linearGradient>
<linearGradient id="paint5_linear_1049_89639" x1="2.0498" y1="7.86816" x2="5.42814" y2="7.89019" gradientUnits="userSpaceOnUse">
<stop stop-color="#C83B62"/>
<stop offset="1" stop-color="#7F35CD"/>
</linearGradient>
<linearGradient id="paint6_linear_1049_89639" x1="7.13867" y1="3.86013" x2="12.6566" y2="3.89611" gradientUnits="userSpaceOnUse">
<stop stop-color="#C83B62"/>
<stop offset="1" stop-color="#7F35CD"/>
</linearGradient>
<linearGradient id="paint7_linear_1049_89639" x1="39.4971" y1="20.9201" x2="64.572" y2="21.0703" gradientUnits="userSpaceOnUse">
<stop stop-color="#C83B62"/>
<stop offset="1" stop-color="#7F35CD"/>
</linearGradient>
<linearGradient id="paint8_linear_1049_89639" x1="66.877" y1="17.6989" x2="93.0772" y2="17.9153" gradientUnits="userSpaceOnUse">
<stop stop-color="#C83B62"/>
<stop offset="1" stop-color="#7F35CD"/>
</linearGradient>
<linearGradient id="paint9_linear_1049_89639" x1="95.4287" y1="17.6806" x2="101.735" y2="17.6931" gradientUnits="userSpaceOnUse">
<stop stop-color="#C83B62"/>
<stop offset="1" stop-color="#7F35CD"/>
</linearGradient>
<linearGradient id="paint10_linear_1049_89639" x1="105.459" y1="17.6806" x2="133.873" y2="17.9356" gradientUnits="userSpaceOnUse">
<stop stop-color="#C83B62"/>
<stop offset="1" stop-color="#7F35CD"/>
</linearGradient>
<linearGradient id="paint11_linear_1049_89639" x1="135.877" y1="17.6989" x2="160.613" y2="17.8918" gradientUnits="userSpaceOnUse">
<stop stop-color="#C83B62"/>
<stop offset="1" stop-color="#7F35CD"/>
</linearGradient>
</defs>
</svg>
